# xmcd CD database file
#
# Track frame offsets:
#	150
#	14775
#	46598
#	55805
#	91010
#	96898
#	129517
#	135663
#	162289
#	169995
#	198844
#	206171
#
# Disc length: 3195 seconds
#
# Revision: 0
# Processed by: cddbd v1.5.1PL2 Copyright (c) Steve Scherf et al.
# Submitted via: CDex 1.51
#
DISCID=9f0c790c
DTITLE=Joseph Warner Quartett - nachtlied in sechs bildern
DYEAR=2002
DGENRE=Jazz
TTITLE0=Orbit: Die Nacht - von oben betrachtet
TTITLE1=Allee im Abendblau
TTITLE2=Das Jetzt, das Damals, das Sp‰ter
TTITLE3=Ein Blick nach fern - Plejaden
TTITLE4=Im Meer der Fragen
TTITLE5=N‰chtliche Stadt - Das Wasserrad
TTITLE6=Erinnerung und Verkl‰rung
TTITLE7=Gewissheit eines unvermeidlichen Abschieds
TTITLE8=Stufen: nach einem Gedicht von Hesse
TTITLE9=Im Gleichmaﬂ von Grau und Grau
TTITLE10=Bewegte Nokturne
TTITLE11=Aufbruch
EXTD=YEAR: 2002
EXTT0=
EXTT1=
EXTT2=
EXTT3=
EXTT4=
EXTT5=
EXTT6=
EXTT7=
EXTT8=
EXTT9=
EXTT10=
EXTT11=
PLAYORDER=
